<?xml version="1.0" standalone="no"?>
<!DOCTYPE svg PUBLIC "-//W3C//DTD SVG 20010904//EN"
 "http://www.w3.org/TR/2001/REC-SVG-20010904/DTD/svg10.dtd">
<svg version="1.0" xmlns="http://www.w3.org/2000/svg"
 width="900.000000pt" height="1460.000000pt" viewBox="0 0 900.000000 1460.000000"
 preserveAspectRatio="xMidYMid meet">
<metadata>
Created by potrace 1.15, written by Peter Selinger 2001-2017
</metadata>
<g transform="translate(0.000000,1460.000000) scale(0.100000,-0.100000)"
fill="#000000" stroke="none">
<path d="M7165 13913 c-319 -31 -526 -88 -753 -209 -290 -153 -578 -368 -817
-609 -197 -199 -322 -371 -430 -590 -306 -625 -492 -1376 -689 -2780 -135
-961 -298 -2470 -376 -3485 -41 -537 -82 -902 -171 -1525 -86 -605 -289 -1864
-325 -2015 -123 -515 -365 -944 -679 -1200 -150 -123 -382 -255 -580 -333
-146 -56 -142 -56 -101 -2 55 72 78 157 83 316 4 109 2 147 -12 195 -66 230
-283 429 -561 517 -161 51 -298 44 -481 -25 -247 -93 -440 -271 -511 -471 -33
-93 -37 -242 -8 -327 63 -188 251 -368 496 -476 203 -89 323 -105 644 -85 489
31 735 112 1131 376 465 308 802 670 990 1060 307 639 500 1437 689 2855 100
750 285 2254 365 2980 54 479 58 519 81 795 51 609 164 1514 334 2675 30 207
69 432 86 500 119 472 318 845 584 1098 185 175 442 330 713 428 l92 33 -34
-45 c-45 -59 -73 -152 -84 -281 -20 -228 37 -375 208 -535 99 -92 213 -161
343 -206 95 -33 112 -36 218 -36 133 -1 221 20 357 84 400 187 572 548 409
858 -95 178 -315 344 -578 434 l-93 32 -250 2 c-137 1 -268 0 -290 -3z"/>
</g>
</svg>
